<svg viewBox="0 0 64 64" xmlns="http://www.w3.org/2000/svg">
  <!-- Ceramic Bowl -->
  <path d="M10 28 C10 52, 20 58, 32 58 C44 58, 54 52, 54 28 Z" fill="#D2691E"/>
  <ellipse cx="32" cy="28" rx="22" ry="8" fill="#A0522D"/>
  <!-- Cream -->
  <ellipse cx="32" cy="28" rx="20" ry="6" fill="#FF8C00"/>
  <!-- Shrimps -->
  <path d="M20 28 C16 22, 24 18, 26 26 C28 32, 20 34, 20 28" fill="#FF7F50" stroke="#FF4500" stroke-width="1"/>
  <path d="M40 24 C34 20, 44 14, 46 22 C48 28, 40 30, 40 24" fill="#FF7F50" stroke="#FF4500" stroke-width="1"/>
  <path d="M30 32 C26 26, 36 24, 34 34 C32 40, 26 36, 30 32" fill="#FF7F50" stroke="#FF4500" stroke-width="1"/>
</svg>