<svg viewBox="0 0 64 64" xmlns="http://www.w3.org/2000/svg">
  <!-- Wood Board -->
  <rect x="10" y="36" width="44" height="12" rx="4" fill="#8B4513"/>
  <rect x="12" y="34" width="40" height="10" rx="2" fill="#D2B48C"/>
  <!-- Meat slices -->
  <path d="M18 36 C16 26, 26 24, 28 36" fill="#8B0000"/>
  <path d="M26 36 C24 24, 34 22, 36 36" fill="#8B0000"/>
  <path d="M34 36 C32 24, 42 24, 44 36" fill="#8B0000"/>
  <!-- Onions -->
  <path d="M20 28 Q26 22 32 28" stroke="#FFFACD" stroke-width="2" fill="none"/>
  <path d="M28 26 Q36 20 42 26" stroke="#FFFACD" stroke-width="2" fill="none"/>
  <!-- Cassava chunks -->
  <rect x="14" y="42" width="10" height="6" fill="#F5DEB3" rx="2"/>
  <rect x="26" y="44" width="12" height="6" fill="#F5DEB3" rx="2"/>
  <rect x="40" y="42" width="10" height="5" fill="#F5DEB3" rx="2"/>
</svg>